<svg id="Camada_1" data-name="Camada 1" xmlns="http://www.w3.org/2000/svg" viewBox="0 0 1964 486.99"><defs><style>.cls-1{fill:#41aa7d;}.cls-2{fill:#aeff63;}</style></defs><title>logo_FS_typografia_colorido_slogan</title><path class="cls-1" d="M244,90.56v40.68H112.88v35.61H225.94v39.88H112.88v66.55H74.51V90.56Z"/><path class="cls-1" d="M436.05,90.56v40.68H300.83v29.87H418v40H300.83V232.6H436.05v40.68H262.46V90.56Z"/><path class="cls-1" d="M593.43,90.56q17.64,0,30.06,14.67,12.62,14.67,12.31,35.34a56.07,56.07,0,0,1-3.69,20.28A51,51,0,0,1,622,177.25a47.58,47.58,0,0,1,16.41,18.67,56.68,56.68,0,0,1,6.16,26.28q0,21.2-12.62,36.27-12.42,14.8-30.57,14.81H454.52V90.56ZM492.89,165H581a13.22,13.22,0,0,0,10.57-5.2,20.59,20.59,0,0,0,0-25.21,13.22,13.22,0,0,0-10.57-5.2H492.89Zm0,69.62h97.77a13.24,13.24,0,0,0,10.57-5.2,17.28,17.28,0,0,0,4.3-12.67,18.93,18.93,0,0,0-4.41-12.67A12.73,12.73,0,0,0,590.66,199H492.89Z"/><path class="cls-1" d="M801,90.56q20.41,0,34.89,17.07t14.46,41.21q0,22.28-12.51,38.68-12.52,16-31.19,18.81l45.75,66.95H807.75L765.48,207H701.36v66.29H663V90.56Zm-99.61,76.16,95.92.13a13,13,0,0,0,10.77-5.07,19,19,0,0,0,4.21-12.8q.11-8-4.21-12.81a11.81,11.81,0,0,0-10.77-4.93H701.36Z"/><path class="cls-1" d="M992.11,90.56l89.25,182.72H1040l-19.39-40H925.52l-19.59,40H864.68L953.94,90.56Zm-47.71,104h57.25l-28.52-58.68Z"/><path class="cls-1" d="M1453.88,90.56q18.87,0,32,15.6T1499,143.91v76q.11,22.14-13.13,37.74t-32,15.61H1344q-18.78,0-32-15.61t-13.13-37.74v-76q0-22.14,13.13-37.75t32-15.6Zm-111.42,46.95q-5.24,5.87-5.23,15.07v58.68a23.28,23.28,0,0,0,5.23,15.21,16.8,16.8,0,0,0,12.83,6.13h87.3a17.62,17.62,0,0,0,12.83-6.27,23.13,23.13,0,0,0,5.23-15.07V152.58q0-9.21-5.23-15.21-5.13-6.52-12.83-6.13h-87.3Q1347.69,131.11,1342.46,137.51Z"/><path class="cls-1" d="M1687.07,90.56v40.68H1556v35.61H1669v39.88H1556v66.55h-38.37V90.56Z"/><path class="cls-1" d="M1889.49,90.56v40.68h-72.84v142h-38.37v-142h-72.74V90.56Z"/><path class="cls-1" d="M1148.61,62.69v23h29.69v-23Z"/><path class="cls-1" d="M1184.69,278.27v23h29.69v-23Z"/><path class="cls-1" d="M1184.69,45.71v40h29.69v-40Z"/><path class="cls-1" d="M1148.61,278.27v40h29.69v-40Z"/><path class="cls-2" d="M1255.84,255.14a43,43,0,0,1-.66,7.5q-15.79,10.71-36.8,10.8h-6.92v-.07h-61.54v.07h-3q-25.9-.1-44-16.53-18.17-16.58-18.18-40.21h46.6V217a14.59,14.59,0,0,0,5.2,11.34A18,18,0,0,0,1149,233h64.89a18,18,0,0,0,12.52-4.66,14.14,14.14,0,0,0,5.09-11.34c0-.2,0-.41,0-.61A43.07,43.07,0,0,1,1255.84,255.14Z"/><path class="cls-1" d="M1280.73,216.7a51.46,51.46,0,0,1-13.65,35.56,54.32,54.32,0,0,0-50.69-51.33h0a19.29,19.29,0,0,0-2.54-.13h-66.22q-25.11,0-42.7-16-17.62-16.16-17.65-39t17.39-38.36a54.32,54.32,0,0,0,44.4,51.46,17.29,17.29,0,0,0,5.65.9h63.66q26,0,44.21,16.7Q1281,192.95,1280.73,216.7Z"/><path class="cls-2" d="M1272.87,145.82v.8h-48.5a1.34,1.34,0,0,1,.15-.42c.27-.24.27-.38,0-.38a12.47,12.47,0,0,0-4.67-10.14,14.17,14.17,0,0,0-10.95-4.14h-54.18a15.87,15.87,0,0,0-11,4.28,12.68,12.68,0,0,0-4.38,8,43.06,43.06,0,0,1-23.44-38.3,42.14,42.14,0,0,1,.52-6.69,65.5,65.5,0,0,1,31.16-8.25h64.75q25.2-.42,42.84,16.14Q1273.26,122.7,1272.87,145.82Z"/><path class="cls-1" d="M1730,360.75h-.18a38.73,38.73,0,0,1-1.35,4.5l-10.17,26.91h23.22l-10.17-26.91C1730.87,364,1730.42,362.37,1730,360.75Z"/><path class="cls-1" d="M1184.58,360.75h-.18a38.73,38.73,0,0,1-1.35,4.5l-10.17,26.91h23.22l-10.17-26.91C1185.48,364,1185,362.37,1184.58,360.75Z"/><path class="cls-1" d="M74.51,332.44v91.74h1815V332.44Zm718.66,7.43h6.3l8.73,11.34-5-.18-6.93-6.75L789.48,351l-5.13.18ZM127.17,413h-5.58v-59h5.58Zm111.51,0H232.2l-28-42.84c-1.89-3.06-4.77-8-5.13-8.73l-.36.18a63.26,63.26,0,0,1,.36,8l.18,43.38h-5.67v-59h6.48l28,43.11c2.7,4.32,4.23,7.11,5,8.64l.45-.18c-.09-1-.45-4.41-.45-8.1L233,353.91h5.67Zm104.67-54.18h-20V413H317.7V358.77H297.81v-4.86h45.54Zm94.86,0H408.06v21.06h27.18v4.77H408.06v23.49h30.15V413H402.48v-59h35.73ZM537.3,413H500.94v-59h5.58v54.18H537.3ZM602,413h-5.58v-59H602Zm111.33,0h-3.42a66,66,0,0,1-1.08-9.36c-3.06,6.12-9.45,9.81-18.36,9.81-15.39,0-25.56-12-25.56-30s10.71-30.06,26-30.06c16.65,0,21.78,12,22,18.27l-5.31.9c0-4.5-3.78-14.22-16.56-14.22-11.7,0-20.43,9.45-20.43,25.11,0,14.94,7.92,25,20.61,25,12.15,0,17.37-8.37,17.37-15.12v-3.87H687.78v-4.77h25.56Zm99.54-54.18H782.73v21.06h27.18v4.77H782.73v23.49h30.15V413H777.15v-59h35.73ZM920.7,413h-6.48l-28-42.84c-1.89-3.06-4.77-8-5.13-8.73l-.36.18a63.26,63.26,0,0,1,.36,8l.18,43.38h-5.67v-59h6.48l28,43.11c2.7,4.32,4.23,7.11,5,8.64l.45-.18c-.09-1-.45-4.41-.45-8.1L915,353.91h5.67Zm90.36.45c-16.29,0-27.45-11.07-27.45-30,0-18.54,11-30.06,26.28-30.06,16.47,0,21.69,12.42,21.87,18.81l-5.4.9c0-4.5-3.78-14.76-16.38-14.76-11.61,0-20.7,9.27-20.7,25.11,0,16.83,9.81,25,22,25a21.73,21.73,0,0,0,17.55-9.18l3.51,3.51A25.81,25.81,0,0,1,1011.06,413.4Zm88.29-.45h-5.58v-59h5.58ZM1204,413l-6.12-16h-26.82l-6,16h-5.85l22.5-59h5.67l22.5,59Zm169.29-54.18h-29.07v21.42h25.2v4.95h-25.2V413h-5.58v-59h34.65ZM1439.46,413h-5.58v-59h5.58Zm82.71.45c-11,0-18-4-21.42-6.84l3.51-4.41c2.79,2.34,8.19,6.3,17.91,6.3,9.17,0,14.75-4.14,14.75-10.26,0-17.64-33.74-8.73-33.74-29.34,0-9.27,7.83-15.48,19-15.48,14.48,0,18.35,8.91,19.79,13.32l-5.4,1.35c-.81-3.06-4.41-9.72-14.39-9.72-7.92,0-13.32,4.05-13.32,10.44,0,15.3,33.65,7.2,33.65,29.43C1542.5,407.28,1534.58,413.4,1522.17,413.4Zm106.82,0c-16.29,0-27.44-11.07-27.44-30,0-18.54,11-30.06,26.27-30.06,16.47,0,21.69,12.42,21.87,18.81l-5.4.9c0-4.5-3.78-14.76-16.38-14.76-11.61,0-20.7,9.27-20.7,25.11,0,16.83,9.81,25,22,25a21.73,21.73,0,0,0,17.55-9.18l3.51,3.51A25.81,25.81,0,0,1,1629,413.4Zm120.42-.45-6.12-16h-26.82l-6,16h-5.85l22.5-59h5.67l22.5,59Zm102.15,0H1815.2v-59h5.58v54.18h30.78Z"/></svg>