<svg id="Camada_1" data-name="Camada 1" xmlns="http://www.w3.org/2000/svg" viewBox="0 0 780.21 780.21"><defs><style>.cls-1{fill:none;}.cls-2{fill:#aeff63;}.cls-3{fill:#41aa7d;}</style></defs><title>logo_FS_water_mark_bg</title><rect class="cls-1" x="334.79" y="189.74" width="42.46" height="33.01"/><path class="cls-1" d="M313.09,322.29a26.69,26.69,0,0,1,3.16-3.34,30.29,30.29,0,0,1,7.34-4.93,26.24,26.24,0,0,1,2.66-2.73,28,28,0,0,1,19.34-7.56h95.73A25,25,0,0,1,460.66,311c5.64,4.84,8.43,10.85,8.25,17.92.49,0,.49.25,0,.68a2.45,2.45,0,0,0-.25.74h75.58q-1.69-36.78-31.08-62.89Q482,238.29,437.46,239H323.07a118.85,118.85,0,0,0-45.46,9.74,76,76,0,0,0,35.48,73.58Z"/><path class="cls-1" d="M257.62,397.84q31,28.28,75.45,28.27s120,.05,121.48.22h0a96,96,0,0,1,89.18,85.82q14.46-22.35,14.49-50.29.46-42-32.05-71-32.08-29.49-78.12-29.51s-119.37-.53-122.45-1.59a96,96,0,0,1-78.31-88.42Q226.45,296,226.43,329,226.43,369.33,257.62,397.84Z"/><path class="cls-1" d="M254.08,525.25q32.09,29,77.81,29.2h5.21v-.13H445.84v.13h12.22q30.85-.13,55.31-13.23A75.8,75.8,0,0,0,479,465.68a27.08,27.08,0,0,1-6.84,9,31.13,31.13,0,0,1-7.35,5,28.9,28.9,0,0,1-2.65,2.66,31.83,31.83,0,0,1-22.13,8.24H325.42a31.7,31.7,0,0,1-21.94-8.24,25.79,25.79,0,0,1-9.18-20v-.49H222.25Q225,498.67,254.08,525.25Z"/><rect class="cls-1" x="398.54" y="159.74" width="42.46" height="63.01"/><rect class="cls-1" x="398.54" y="570.64" width="42.46" height="33"/><rect class="cls-1" x="334.79" y="570.64" width="42.46" height="63"/><path class="cls-2" d="M308.5,333a22,22,0,0,1,4.59-10.74,76,76,0,0,1-35.48-73.58q-4.92,2.17-9.61,4.83A76,76,0,0,0,308.5,333Z"/><path class="cls-2" d="M468.91,329.64c.49-.43.49-.68,0-.68.18-7.07-2.61-13.08-8.25-17.92a25,25,0,0,0-19.34-7.31H345.59a28,28,0,0,0-19.34,7.56,26.24,26.24,0,0,0-2.66,2.73,27.84,27.84,0,0,1,12-2.63h95.73a25,25,0,0,1,19.34,7.31c5.64,4.84,8.43,10.85,8.25,17.92.49,0,.49.25,0,.68a2.45,2.45,0,0,0-.25.74h85.68v-1.42c0-2.1,0-4.19-.1-6.24H468.66A2.45,2.45,0,0,1,468.91,329.64Z"/><polygon class="cls-2" points="324.79 641.31 377.25 641.31 377.25 633.65 334.79 633.65 334.79 570.64 324.79 570.64 324.79 641.31"/><path class="cls-2" d="M479,465.68a74.88,74.88,0,0,0-7.88-4.41q0,.54,0,1.08a24.47,24.47,0,0,1-6.34,17.37,31.13,31.13,0,0,0,7.35-5A27.08,27.08,0,0,0,479,465.68Z"/><path class="cls-2" d="M247.62,405.5q31,28.28,75.45,28.27s120,.05,121.48.22h0a96,96,0,0,1,89.56,90.7,99.57,99.57,0,0,0,9.62-12.54,96,96,0,0,0-89.18-85.82h0c-1.46-.17-121.48-.22-121.48-.22q-44.37,0-75.45-28.27Q226.46,369.28,226.43,329q0-33,20.87-57.61c-.05-.83-.12-1.66-.15-2.5q-30.69,27.76-30.72,67.77Q216.43,377,247.62,405.5Z"/><polygon class="cls-2" points="377.25 222.76 334.79 222.76 334.79 189.74 324.79 189.74 324.79 230.42 377.25 230.42 377.25 222.76"/><polygon class="cls-2" points="441 222.76 398.54 222.76 398.54 159.74 388.54 159.74 388.54 230.42 441 230.42 441 222.76"/><path class="cls-2" d="M244.08,532.91q32.09,29,77.81,29.2h5.21V562H435.84v.13h12.22q37.14-.15,65-19.08c.11-.6.19-1.2.28-1.81q-24.48,13.1-55.31,13.23H445.84v-.13H337.1v.13h-5.21q-45.75-.19-77.81-29.2Q225,498.69,222.25,461.86H212Q212,503.61,244.08,532.91Z"/><path class="cls-2" d="M742.11,389.11c0-191.65-155.36-347-347-347a345.53,345.53,0,0,0-215.9,75.33,345.4,345.4,0,0,1,205.9-67.67c191.64,0,347,155.36,347,347,0,110-51.22,208.1-131.1,271.67C686.59,605.25,742.11,503.66,742.11,389.11Z"/><polygon class="cls-2" points="388.54 611.31 441 611.31 441 603.65 398.54 603.65 398.54 570.64 388.54 570.64 388.54 611.31"/><path class="cls-3" d="M732.11,396.77c0-191.64-155.36-347-347-347a345.4,345.4,0,0,0-205.9,67.67C93.62,180.63,38.11,282.22,38.11,396.77c0,191.65,155.35,347,347,347A345.52,345.52,0,0,0,601,668.44C680.89,604.87,732.11,506.8,732.11,396.77Zm-343.57-237H441v70.68H388.54Zm-63.75,30h52.46v40.68H324.79ZM268,253.54q4.68-2.65,9.61-4.83A118.85,118.85,0,0,1,323.07,239H437.46q44.54-.75,75.7,28.52,29.43,26.08,31.08,62.89c.1,2.05.14,4.14.1,6.24V338H458.66a2.45,2.45,0,0,1,.25-.74c.49-.43.49-.68,0-.68.18-7.07-2.61-13.08-8.25-17.92a25,25,0,0,0-19.34-7.31H335.59a27.84,27.84,0,0,0-12,2.63,30.29,30.29,0,0,0-7.34,4.93,26.69,26.69,0,0,0-3.16,3.34A22,22,0,0,0,308.5,333,76,76,0,0,1,268,253.54Zm-20.85,15.31c0,.84.1,1.67.15,2.5a96,96,0,0,0,78.31,88.42c3.08,1.06,122.45,1.59,122.45,1.59q46,0,78.12,29.51,32.55,29,32.05,71,0,27.94-14.49,50.29a99.57,99.57,0,0,1-9.62,12.54A96,96,0,0,0,444.56,434h0c-1.46-.17-121.48-.22-121.48-.22q-44.37,0-75.45-28.27-31.16-28.56-31.19-68.88Q216.43,296.56,247.15,268.85Zm-24.9,193H294.3v.49a25.79,25.79,0,0,0,9.18,20,31.7,31.7,0,0,0,21.94,8.24H440.06a31.83,31.83,0,0,0,22.13-8.24,28.9,28.9,0,0,0,2.65-2.66,24.47,24.47,0,0,0,6.34-17.37q0-.54,0-1.08a74.88,74.88,0,0,1,7.88,4.41,75.8,75.8,0,0,1,34.34,75.54c-.09.61-.17,1.21-.28,1.81q-27.92,18.93-65,19.08H435.84V562H327.1v.13h-5.21q-45.75-.2-77.81-29.2Q212,503.62,212,461.86Zm155,108.78v70.67H324.79V570.64h52.46Zm63.75,0v40.67H388.54V570.64H441Z"/></svg>