<svg id="Camada_1" data-name="Camada 1" xmlns="http://www.w3.org/2000/svg" viewBox="0 0 780.21 780.21"><defs><style>.cls-1{fill:#aeff63;}.cls-2{fill:#41aa7d;}</style></defs><title>watermark_color_bg</title><path class="cls-1" d="M395.11,42.11a345.53,345.53,0,0,0-215.9,75.33,345.4,345.4,0,0,1,205.9-67.67c191.64,0,347,155.36,347,347,0,110-51.22,208.1-131.1,271.67,85.58-63.19,141.1-164.78,141.1-279.33C742.11,197.46,586.75,42.11,395.11,42.11Z"/><path class="cls-2" d="M732.11,396.77c0-191.64-155.36-347-347-347a345.4,345.4,0,0,0-205.9,67.67C93.62,180.63,38.11,282.22,38.11,396.77c0,191.65,155.35,347,347,347A345.52,345.52,0,0,0,601,668.44C680.89,604.87,732.11,506.8,732.11,396.77Zm-343.57-237H441v70.68H388.54Zm-63.75,30h52.46v40.68H324.79ZM268,253.54q4.68-2.65,9.61-4.83A118.85,118.85,0,0,1,323.07,239H437.46q44.54-.75,75.7,28.52,29.43,26.08,31.08,62.89c.1,2.05.14,4.14.1,6.24V338H458.66a2.45,2.45,0,0,1,.25-.74c.49-.43.49-.68,0-.68.18-7.07-2.61-13.08-8.25-17.92a25,25,0,0,0-19.34-7.31H335.59a27.84,27.84,0,0,0-12,2.63,30.29,30.29,0,0,0-7.34,4.93,26.69,26.69,0,0,0-3.16,3.34A22,22,0,0,0,308.5,333,76,76,0,0,1,268,253.54ZM377.25,633.65v7.66H324.79V570.64h52.46Zm63.75-30v7.66H388.54V570.64H441Zm72.37-62.43c-.09.61-.17,1.21-.28,1.81q-27.92,18.93-65,19.08H435.84V562H327.1v.13h-5.21q-45.75-.2-77.81-29.2Q212,503.62,212,461.86H294.3v.49a25.79,25.79,0,0,0,9.18,20,31.7,31.7,0,0,0,21.94,8.24H440.06a31.83,31.83,0,0,0,22.13-8.24,28.9,28.9,0,0,0,2.65-2.66,24.47,24.47,0,0,0,6.34-17.37q0-.54,0-1.08a74.88,74.88,0,0,1,7.88,4.41,75.8,75.8,0,0,1,34.34,75.54Zm30.37-29.07a99.57,99.57,0,0,1-9.62,12.54A96,96,0,0,0,444.56,434h0c-1.46-.17-121.48-.22-121.48-.22q-44.37,0-75.45-28.27-31.16-28.56-31.19-68.88,0-40.06,30.72-67.77c0,.84.1,1.67.15,2.5a96,96,0,0,0,78.31,88.42c3.08,1.06,122.45,1.59,122.45,1.59q46,0,78.12,29.51,32.55,29,32.05,71Q558.23,489.81,543.74,512.15Z"/></svg>