<?xml version="1.0" encoding="utf-8"?>
<!-- Generator: Adobe Illustrator 22.0.1, SVG Export Plug-In . SVG Version: 6.00 Build 0)  -->
<svg version="1.1" id="Capa_1" xmlns="http://www.w3.org/2000/svg" xmlns:xlink="http://www.w3.org/1999/xlink" x="0px" y="0px"
	 viewBox="0 0 512 512" style="enable-background:new 0 0 512 512;" xml:space="preserve">
<style type="text/css">
	.st0{fill:#FFFFFF;}
	.st1{fill:#41AA7D;}
</style>
<g>
	<path class="st0" d="M256,0C114.8,0,0,114.8,0,256s114.8,256,256,256s256-114.8,256-256S397.2,0,256,0z M256,484.3
		c-62.7,0-119.6-25.4-160.9-66.5c-16.5-16.4-30.5-35.3-41.4-56.1c-16.6-31.6-26-67.6-26-105.8C27.7,130.1,130.1,27.7,256,27.7
		c59.7,0,114.1,23.1,154.9,60.7c21.1,19.5,38.6,43,51.1,69.2c14.3,29.8,22.3,63.2,22.3,98.4C484.3,381.9,381.9,484.3,256,484.3z"/>
	<path class="st1" d="M168.5,197.9c14.9,0,27,11.4,27,27h27.7c0-31.1-24.5-54.7-54.7-54.7s-54.7,23.5-54.7,54.7h27.7
		C141.5,209.3,153.6,197.9,168.5,197.9z"/>
	<path class="st1" d="M343.5,197.9c14.9,0,27,11.4,27,27h27.7c0-31.1-24.5-54.7-54.7-54.7c-30.1,0-54.7,23.5-54.7,54.7h27.7
		C316.5,209.3,328.6,197.9,343.5,197.9z"/>
	<path class="st0" d="M255.5,397.8c53.5,0,104.9-27.4,134.2-72.8l-23.2-15c-27,41.7-76.3,65-125.7,59.3
		c-38.5-4.4-74.1-26.6-95.3-59.3l-23.2,15c25.6,39.6,68.7,66.4,115.3,71.8C243.6,397.5,249.6,397.8,255.5,397.8z"/>
</g>
</svg>
