<?xml version="1.0" encoding="utf-8"?>
<!-- Generator: Adobe Illustrator 22.0.1, SVG Export Plug-In . SVG Version: 6.00 Build 0)  -->
<svg version="1.1" id="Capa_1" xmlns="http://www.w3.org/2000/svg" xmlns:xlink="http://www.w3.org/1999/xlink" x="0px" y="0px"
	 viewBox="0 0 485.7 485.7" style="enable-background:new 0 0 485.7 485.7;" xml:space="preserve">
<style type="text/css">
	.st0{fill:#FFFFFF;}
	.st1{fill:#41AA7D;}
</style>
<g>
	<g>
		<path class="st0" d="M334.5,312h-200c-2.1,0-4.2,0.8-5.7,2.3l-96,96l11.3,11.3l93.7-93.7h187.9c-1.7,9.5-6.9,24-23.2,24h-88v16h88
			c31.6,0,40-31.4,40-48C342.5,315.6,338.9,312,334.5,312z"/>
	</g>
</g>
<g>
	<g>
		<path class="st0" d="M436.2,258.3c-3.1-3.1-8.2-3.1-11.3,0l-72,72l11.3,11.3l65.7-65.7c10.8,14.4,8.6,34.7-5,46.4L331.2,416H166.5
			c-2.1,0-4.2,0.8-5.7,2.3l-56,56l11.3,11.3l53.7-53.7h164.7c2.1,0,4.2-0.8,5.7-2.3l96-96C466,303.9,449.2,271.4,436.2,258.3z"/>
	</g>
</g>
<g>
	<g>
		<path class="st1" d="M390.5,112h-28.8c-2.2-7.3-5.1-14.4-8.8-21.2l20.3-20.3c3.1-3.1,3.1-8.2,0-11.3l-34-33.9
			c-3.1-3.1-8.2-3.1-11.3,0l-20.3,20.3c-6.7-3.7-13.8-6.6-21.2-8.8V8c0-4.4-3.6-8-8-8h-48c-4.4,0-8,3.6-8,8v28.8
			c-7.3,2.2-14.5,5.1-21.2,8.8L181,25.2c-3.1-3.1-8.2-3.1-11.3,0l-34,33.9c-3.1,3.1-3.1,8.2,0,11.3l20.4,20.3
			c-3.7,6.7-6.6,13.8-8.8,21.2h-28.8c-4.4,0-8,3.6-8,8v48c0,4.4,3.6,8,8,8h28.8c2.2,7.3,5.1,14.4,8.8,21.2l-20.3,20.3
			c-3.1,3.1-3.1,8.2,0,11.3l34,34c3.2,3,8.1,3,11.3,0l20.3-20.4c6.7,3.7,13.8,6.6,21.2,8.8V280c0,4.4,3.6,8,8,8h48c4.4,0,8-3.6,8-8
			v-28.8c7.3-2.2,14.4-5.1,21.2-8.8l20.3,20.3c1.5,1.5,3.5,2.3,5.7,2.3s4.2-0.8,5.7-2.3l33.9-34c3.1-3.1,3.1-8.2,0-11.3L353,197.2
			c3.7-6.7,6.6-13.8,8.8-21.2h28.8c4.4,0,8-3.6,8-8v-48C398.5,115.6,394.9,112,390.5,112z M382.5,160h-26.9c-3.7,0-6.9,2.6-7.8,6.2
			c-2.4,9.9-6.3,19.4-11.7,28.1c-2,3.2-1.5,7.2,1.2,9.9l19,19l-22.6,22.6l-19-19c-2.6-2.6-6.7-3.1-9.9-1.2
			c-8.7,5.4-18.2,9.3-28.1,11.7c-3.6,0.9-6.2,4.1-6.2,7.8V272h-32v-26.9c0-3.7-2.6-6.9-6.2-7.8c-9.9-2.4-19.4-6.3-28.1-11.7
			c-3.2-1.9-7.2-1.5-9.9,1.2l-19,19l-22.6-22.6l19-19c2.6-2.6,3.1-6.7,1.2-9.9c-5.4-8.7-9.3-18.2-11.7-28.1
			c-0.9-3.6-4.1-6.2-7.8-6.2h-26.9v-32h26.9c3.7,0,6.9-2.6,7.8-6.2c2.4-9.9,6.3-19.4,11.7-28.1c1.9-3.2,1.5-7.2-1.2-9.9l-19-19
			l22.6-22.6l19,19c2.6,2.6,6.7,3.1,9.9,1.2c8.7-5.4,18.2-9.3,28.1-11.7c3.6-0.9,6.2-4.1,6.2-7.8V16h32v26.9c0,3.7,2.6,6.9,6.2,7.8
			c9.9,2.4,19.5,6.3,28.1,11.7c3.2,1.9,7.2,1.5,9.9-1.2l19-19l22.6,22.6l-19,19c-2.6,2.6-3.1,6.7-1.2,9.9
			c5.4,8.7,9.3,18.2,11.7,28.1c0.9,3.6,4.1,6.2,7.8,6.2h26.9L382.5,160L382.5,160z"/>
	</g>
</g>
<g>
	<g>
		<path class="st0" d="M254.5,96c-26.5,0-48,21.5-48,48s21.5,48,48,48c26.5,0,48-21.5,48-48C302.5,117.5,281,96,254.5,96z
			 M254.5,176c-17.7,0-32-14.3-32-32s14.3-32,32-32s32,14.3,32,32S272.2,176,254.5,176z"/>
	</g>
</g>
</svg>
