<?xml version="1.0" encoding="utf-8"?>
<!-- Generator: Adobe Illustrator 22.0.1, SVG Export Plug-In . SVG Version: 6.00 Build 0)  -->
<svg version="1.1" id="Layer_1" xmlns="http://www.w3.org/2000/svg" xmlns:xlink="http://www.w3.org/1999/xlink" x="0px" y="0px"
	 viewBox="0 0 512 525.3" style="enable-background:new 0 0 512 525.3;" xml:space="preserve">
<style type="text/css">
	.st0{fill:#FFFFFF;}
	.st1{fill:#41AA7D;}
</style>
<g>
	<g>
		<path class="st0" d="M442.4,62.9L275.8,13.8c-12.9-3.8-26.6-3.8-39.6,0L69.6,62.9C57.3,66.5,48.7,78,48.7,90.8v138
			c0,63.9,19,125.4,55,177.9c35.1,51.2,84,90.7,141.3,114c3.6,1.4,7.3,2.2,11,2.2s7.5-0.7,11-2.2c57.3-23.3,106.2-62.8,141.3-114
			c36-52.5,55-114,55-177.9v-138C463.3,78,454.7,66.5,442.4,62.9z M440,228.9c0,59.1-17.6,116.1-50.9,164.7
			c-32.5,47.5-77.8,84-130.9,105.6c-1.4,0.6-3,0.6-4.5,0c-53.1-21.6-98.4-58.1-130.9-105.6C89.6,345,72,288,72,228.9v-138
			c0-2.6,1.7-4.9,4.2-5.6l166.7-49.1c4.3-1.3,8.8-1.9,13.2-1.9c4.4,0,8.9,0.6,13.2,1.9l166.7,49.1c2.5,0.7,4.2,3,4.2,5.6L440,228.9
			L440,228.9z"/>
	</g>
</g>
<g>
	<g>
		<path class="st1" d="M385.1,116.9L260.9,80.3c-3.2-1-6.7-1-9.9,0l-124.2,36.6c-7.4,2.2-12.5,9.1-12.5,16.8v97.6
			c0,51.6,15.6,101.1,45.1,143.1c22.9,32.6,53.5,59.5,88.5,77.8c2.5,1.3,5.3,2,8.1,2c2.8,0,5.6-0.7,8.1-2
			c35-18.3,65.6-45.2,88.5-77.8c29.5-42,45.1-91.5,45.1-143.1v-97.6C397.7,126,392.5,119.1,385.1,116.9z M374.4,231.3
			c0,46.8-14.1,91.6-40.9,129.7c-20.2,28.7-46.9,52.6-77.5,69.1c-30.6-16.6-57.3-40.4-77.5-69.1c-26.8-38.1-40.9-82.9-40.9-129.7
			V138L256,103.1L374.4,138V231.3z"/>
	</g>
</g>
<g>
	<path class="st0" d="M328.2,281.9c-1.3-4.5-3.2-8.3-5.8-11.3c-2.6-3.1-5.9-5.4-9.6-6.9c-3.7-1.5-8-2.3-12.8-2.3
		c-10.1,0-17.7,3.2-22.5,9.5c-4.6,6.1-7,15.2-7,26.9c0,7.4,1.3,13.7,3.8,18.9c2.6,5.2,6.2,9.2,10.7,11.7c4.5,2.5,9.6,3.8,15.3,3.8
		c9.1,0,16.5-3,21.8-8.9c5.3-5.8,7.9-14.7,7.9-26.3C330,291.4,329.4,286.3,328.2,281.9z M311.3,314.4c-2,4.6-5.7,7-11,7
		c-5.1,0-8.9-2.4-11-6.8c-1.8-3.9-2.7-9.8-2.7-18c0-5.3,0.3-9.4,1-12.8c0.8-3.6,2.1-6.4,4.1-8.4c2.1-2.1,5-3.2,8.5-3.2
		c5.1,0,8.8,2.3,10.8,6.6c1.8,3.8,2.7,9.5,2.7,17.4C313.8,304.5,313,310.4,311.3,314.4z"/>
	<path class="st0" d="M302.3,205.6c0-2.3-0.8-4.4-2.4-5.8c-1.5-1.5-3.5-2.2-5.9-2.2c-2.5,0-4.5,0.8-6,2.4c-1.1,1.2-2.3,2.9-3.6,5.2
		l-72.6,117.3c-1.4,2.2-2.2,4.1-2.2,5.8c0,2.4,1,4.5,3,5.9c1.8,1.3,3.6,2,5.5,2c3.3,0,6.1-2,8.4-5.9l72.2-116.4
		C301.9,208.8,302.3,206.9,302.3,205.6z"/>
	<path class="st0" d="M233.4,260.8c5.3-5.8,7.9-14.7,7.9-26.3c0-5.7-0.6-10.8-1.8-15.1c-1.2-4.4-3.2-8.2-5.8-11.4
		c-2.6-3.2-5.9-5.6-9.6-7.1c-3.7-1.5-8-2.3-12.8-2.3c-6.7,0-12.3,1.4-16.7,4.3c-4.5,2.9-7.7,7.2-9.7,12.7
		c-1.9,5.3-2.8,11.9-2.8,19.6c0,7.3,1.2,13.7,3.7,18.8c2.5,5.3,6.1,9.3,10.7,11.8c4.5,2.5,9.6,3.7,15.2,3.7
		C220.7,269.7,228.1,266.7,233.4,260.8z M199.1,221.2c0.7-3.7,2.1-6.6,4.1-8.6c2.1-2.1,4.9-3.2,8.4-3.2c5.1,0,8.8,2.3,10.8,6.6
		c1.8,3.8,2.7,9.6,2.7,17.6c0,8.3-0.8,14.2-2.5,18.2c-1.9,4.6-5.7,7-11,7c-3.5,0-6.4-1.1-8.5-3.2c-2-2-3.3-4.9-4-8.6
		c-0.6-3.4-1-7.8-1-13C198.2,228.9,198.5,224.6,199.1,221.2z"/>
</g>
</svg>
