<?xml version="1.0" encoding="utf-8"?>
<!-- Generator: Adobe Illustrator 22.0.1, SVG Export Plug-In . SVG Version: 6.00 Build 0)  -->
<svg version="1.1" id="Layer_1" xmlns="http://www.w3.org/2000/svg" xmlns:xlink="http://www.w3.org/1999/xlink" x="0px" y="0px"
	 viewBox="0 0 512 512" style="enable-background:new 0 0 512 512;" xml:space="preserve">
<style type="text/css">
	.st0{fill:#FFFFFF;}
	.st1{fill:#41AA7D;}
</style>
<g>
	<g>
		<path class="st0" d="M392.3,28.1c-39.5,0-71.6,32.1-71.6,71.6c0,28.2,16.4,52.6,40.1,64.3v23.9c0,8.6,7,15.5,15.5,15.5h8.5v0.5
			c0,4.1,3.4,7.5,7.5,7.5s7.5-3.4,7.5-7.5v-0.5h8.5c8.6,0,15.5-7,15.5-15.5V164c23.7-11.7,40.1-36.1,40.1-64.3
			C463.9,60.2,431.8,28.1,392.3,28.1z M408.8,187.9c0,0.3-0.2,0.5-0.5,0.5h-32.1c-0.3,0-0.5-0.2-0.5-0.5v-18.5
			c5.3,1.3,10.9,2,16.5,2c5.7,0,11.2-0.7,16.5-2L408.8,187.9L408.8,187.9z M379.9,115.2h24.7l-10.5,41.1c-0.6,0-1.2,0-1.9,0
			c-0.6,0-1.2,0-1.9,0L379.9,115.2z M410.4,153.3l13.2-51.8c1-4-1.4-8.1-5.4-9.1c-4-1-8.1,1.4-9.1,5.4l-0.6,2.4c0,0-0.1,0-0.1,0
			h-32.1c0,0-0.1,0-0.1,0l-0.6-2.4c-1-4-5.1-6.4-9.1-5.4c-4,1-6.4,5.1-5.4,9.1l13.2,51.8c-22.4-7.6-38.5-28.7-38.5-53.6
			c0-31.2,25.4-56.6,56.6-56.6c31.2,0,56.6,25.4,56.6,56.6C448.9,124.6,432.7,145.8,410.4,153.3z"/>
	</g>
</g>
<g>
	<g>
		<path class="st0" d="M264,389l-67.5-29.8c-3.1-1.4-5.1-4.4-5.1-7.8v-25.8c17.1-11.1,30.1-28,36.2-47.8
			c18-20.4,27.9-46.6,27.9-73.9c0-41.6-22.9-78-56.7-97.2c0.4-2.3,0.6-4.7,0.6-7c0-26.2-24.9-47.6-55.6-47.6S88.2,73.4,88.2,99.7
			c0,2.3,0.2,4.7,0.6,7c-33.8,19.2-56.7,55.6-56.7,97.2c0,27.3,9.9,53.5,27.9,73.9c6.1,19.9,19.1,36.7,36.2,47.8v25.8
			c0,3.4-2,6.4-5.1,7.8L23.6,389C9.3,395.3,0,409.5,0,425.2v51.3c0,4.1,3.4,7.5,7.5,7.5s7.5-3.4,7.5-7.5v-51.3
			c0-9.7,5.7-18.5,14.6-22.5l42.9-18.9c13.4,26.9,40.9,44,71.3,44c30.5,0,57.8-17.1,71.3-44l42.9,18.9c8.9,3.9,14.6,12.7,14.6,22.5
			v51.3c0,4.1,3.4,7.5,7.5,7.5s7.5-3.4,7.5-7.5v-51.3C287.5,409.5,278.3,395.3,264,389z M143.8,67.1c22.4,0,40.6,14.6,40.6,32.6
			c0,0,0,0.1,0,0.1c-12.6-4.9-26.3-7.6-40.6-7.6s-28,2.7-40.6,7.6c0,0,0-0.1,0-0.1C103.2,81.7,121.4,67.1,143.8,67.1z M71.1,252
			v-6.3c0-2.9,1.6-5.5,4.3-7.1c9.4-5.4,21.7-15.4,27.4-32.4c1.3-3.9-0.8-8.2-4.7-9.5c-3.9-1.3-8.2,0.8-9.5,4.7
			c-4.2,12.5-13.5,20-20.7,24.1c-7,4-11.4,11.3-11.8,19.1c-5.9-12.7-9.1-26.6-9.1-40.9c0-53.3,43.4-96.7,96.7-96.7
			s96.7,43.4,96.7,96.7c0,14.2-3.1,28.1-9,40.8v-6.8c0-9.1-3.9-17.8-10.7-23.7c-15.1-13.1-49.2-36-108.3-41.9
			c-4.1-0.4-7.8,2.6-8.2,6.7s2.6,7.8,6.7,8.2c55,5.5,86.2,26.3,100,38.3c3.5,3,5.5,7.5,5.5,12.3V252c0,40.1-32.6,72.7-72.7,72.7
			C103.7,324.7,71.1,292.1,71.1,252z M143.8,412.8c-24.4,0-46.5-13.6-57.5-35.1l10.9-4.8c8.5-3.8,14-12.2,14-21.5v-18
			c10.1,4,21.1,6.3,32.6,6.3s22.5-2.2,32.6-6.3v18c0,9.3,5.5,17.8,14,21.5l10.9,4.8C190.3,399.2,168.3,412.8,143.8,412.8z"/>
	</g>
</g>
<g>
	<g>
		<path class="st1" d="M63.6,436.9c-4.1,0-7.5,3.4-7.5,7.5v32.1c0,4.1,3.4,7.5,7.5,7.5s7.5-3.4,7.5-7.5v-32.1
			C71.1,440.2,67.8,436.9,63.6,436.9z"/>
	</g>
</g>
<g>
	<g>
		<path class="st1" d="M223.9,436.9c-4.1,0-7.5,3.4-7.5,7.5v32.1c0,4.1,3.4,7.5,7.5,7.5s7.5-3.4,7.5-7.5v-32.1
			C231.4,440.2,228.1,436.9,223.9,436.9z"/>
	</g>
</g>
<g>
	<g>
		<path class="st1" d="M480.5,52.1c-4.1,0-7.5,3.4-7.5,7.5s3.4,7.5,7.5,7.5c9.1,0,16.5,7.4,16.5,16.5v128.3
			c0,9.1-7.4,16.5-16.5,16.5h-80.2c-1.6,0-3.1,0.5-4.4,1.4l-71.5,52l11-44.1c0.6-2.2,0.1-4.6-1.4-6.4c-1.4-1.8-3.6-2.9-5.9-2.9h-24
			c-9.1,0-16.5-7.4-16.5-16.5V83.7c0-9.1,7.4-16.5,16.5-16.5c4.1,0,7.5-3.4,7.5-7.5s-3.4-7.5-7.5-7.5c-17.4,0-31.5,14.2-31.5,31.5
			v128.3c0,17.4,14.2,31.5,31.5,31.5h14.4l-11,44.1c-1.2,4.8,0.7,9.6,4.7,12.3c2,1.3,4.2,2,6.4,2c2.4,0,4.7-0.7,6.8-2.2l77.3-56.2
			h77.7c17.4,0,31.5-14.2,31.5-31.5V83.7C512,66.3,497.8,52.1,480.5,52.1z"/>
	</g>
</g>
</svg>
